<?xml version="1.0" encoding="UTF-8"?>
<svg width="24px" height="22px" viewBox="0 0 24 22" version="1.1" xmlns="http://www.w3.org/2000/svg" xmlns:xlink="http://www.w3.org/1999/xlink">
    <!-- Generator: Sketch 63.1 (92452) - https://sketch.com -->
    <title>icon-mis-gifos</title>
    <desc>Created with Sketch.</desc>
    <g id="GIFOS" stroke="none" stroke-width="1" fill="none" fill-rule="evenodd">
        <g id="00-UI-Kit" transform="translate(-666.000000, -2812.000000)" fill="#50E3C2">
            <path d="M673.201101,2812 L673.201101,2814.19924 L670.80179,2814.19924 L670.80179,2816.40101 L670.798899,2816.40101 L668.399449,2816.40101 L668.399449,2820.79823 L666,2820.79823 L666,2822.99748 L666,2823.0024 L666,2825.20177 L668.399449,2825.20177 L668.399449,2829.59899 L670.798899,2829.59899 L670.798899,2831.80076 L670.80179,2831.80076 L673.201101,2831.80076 L673.201101,2834 L682.798761,2834 L682.798761,2831.80076 L685.198486,2831.80076 L685.198486,2829.60139 L685.198486,2829.59899 L685.201101,2829.59899 L687.600688,2829.59899 L687.600688,2825.20177 L690,2825.20177 L690,2820.79823 L687.600688,2820.79823 L687.600688,2816.40101 L685.201101,2816.40101 L685.198486,2816.40101 L685.198486,2814.19924 L682.798761,2814.19924 L682.798761,2812 L673.201101,2812 Z M680.571429,2822.77189 L682.894009,2822.77189 L682.894009,2820.64286 L680.571429,2820.64286 L680.571429,2822.77189 Z M672.857143,2822.77189 L675.179724,2822.77189 L675.179724,2820.64286 L672.857143,2820.64286 L672.857143,2822.77189 Z M676.045802,2827.48556 L678.497696,2827.48556 L680.949168,2827.48556 L683.40064,2827.48556 L683.40064,2825.35714 L685.852535,2825.35714 L685.852535,2827.48679 L683.40064,2827.48679 L683.40064,2829.61521 L680.949168,2829.61521 L678.497696,2829.61521 L676.045802,2829.61521 L673.594329,2829.61521 L673.594329,2827.48679 L671.142857,2827.48679 L671.142857,2825.35714 L673.594329,2825.35714 L673.594329,2827.48556 L676.045802,2827.48556 Z" id="icon-mis-gifos"></path>
        </g>
    </g>
</svg>